<?xml version="1.0" encoding="utf-8"?>
<!-- Generator: Adobe Illustrator 22.1.0, SVG Export Plug-In . SVG Version: 6.00 Build 0)  -->
<svg version="1.1" id="Layer_1" xmlns="http://www.w3.org/2000/svg" xmlns:xlink="http://www.w3.org/1999/xlink" x="0px" y="0px"
	 width="52.3px" height="52.3px" viewBox="0 0 52.3 52.3" style="enable-background:new 0 0 52.3 52.3;" xml:space="preserve">
<style type="text/css">
	.st0{fill:#CA2026;}
	.st1{fill:#FFFFFF;}
</style>
<path class="st0" d="M52.3,26.1c0,14.4-11.7,26.1-26.1,26.1S0,40.6,0,26.1C0,11.7,11.7,0,26.1,0S52.3,11.7,52.3,26.1"/>
<path class="st1" d="M26.1,39.6c-4.7,0-9.1-2.4-11.8-6.3c-0.5-0.8-0.3-1.8,0.5-2.3c0.8-0.5,1.8-0.3,2.3,0.5c2,3,5.4,4.8,9,4.8
	c3.6,0,7-1.8,9-4.8c0.5-0.8,1.5-1,2.3-0.5c0.8,0.5,1,1.5,0.5,2.3C35.3,37.2,30.9,39.6,26.1,39.6"/>
</svg>
