<?xml version="1.0" encoding="utf-8"?>
<!-- Generator: Adobe Illustrator 22.1.0, SVG Export Plug-In . SVG Version: 6.00 Build 0)  -->
<svg version="1.1" id="Layer_1" xmlns="http://www.w3.org/2000/svg" xmlns:xlink="http://www.w3.org/1999/xlink" x="0px" y="0px"
	 width="55.5px" height="50px" viewBox="0 0 55.5 50" style="enable-background:new 0 0 55.5 50;" xml:space="preserve">
<style type="text/css">
	.st0{fill:#CA2026;}
	.st1{fill:#FFFFFF;}
</style>
<path class="st0" d="M50,0H5.6C2.5,0,0,2.5,0,5.6v25c0,3.1,2.5,5.6,5.6,5.6h8.3V50l16.7-13.9H50c3.1,0,5.6-2.5,5.6-5.6v-25
	C55.5,2.5,53,0,50,0"/>
<path class="st1" d="M27.8,28.5c-4.7,0-9.1-2.4-11.8-6.3c-0.5-0.8-0.3-1.8,0.5-2.3c0.8-0.5,1.8-0.3,2.3,0.5c2,3,5.4,4.8,9,4.8
	c3.6,0,7-1.8,9-4.8c0.5-0.8,1.5-1,2.3-0.5c0.8,0.5,1,1.5,0.5,2.3C36.9,26.1,32.5,28.5,27.8,28.5"/>
</svg>
