<?xml version="1.0" encoding="utf-8"?>
<!-- Generator: Adobe Illustrator 22.1.0, SVG Export Plug-In . SVG Version: 6.00 Build 0)  -->
<svg version="1.1" id="Layer_1" xmlns="http://www.w3.org/2000/svg" xmlns:xlink="http://www.w3.org/1999/xlink" x="0px" y="0px"
	 width="42.9px" height="57.3px" viewBox="0 0 42.9 57.3" style="enable-background:new 0 0 42.9 57.3;" xml:space="preserve">
<style type="text/css">
	.st0{fill:#CA2026;}
	.st1{fill:#FFFFFF;}
</style>
<path class="st0" d="M0,52.6c3.9,2.8,12,4.7,21.5,4.7c9.5,0,17.6-1.9,21.5-4.7V25.9V4.7C39.1,1.9,30.9,0,21.5,0C12,0,3.9,1.9,0,4.7
	V52.6z"/>
<path class="st1" d="M21.4,38.9c-4.7,0-9.1-2.4-11.8-6.3c-0.5-0.8-0.3-1.8,0.5-2.3c0.8-0.5,1.8-0.3,2.3,0.5c2,3,5.4,4.8,9,4.8
	c3.6,0,7-1.8,9-4.8c0.5-0.8,1.5-1,2.3-0.5c0.8,0.5,1,1.5,0.5,2.3C30.5,36.6,26.1,38.9,21.4,38.9"/>
</svg>
