<?xml version="1.0" encoding="utf-8"?>
<!-- Generator: Adobe Illustrator 22.1.0, SVG Export Plug-In . SVG Version: 6.00 Build 0)  -->
<svg version="1.1" id="Layer_1" xmlns="http://www.w3.org/2000/svg" xmlns:xlink="http://www.w3.org/1999/xlink" x="0px" y="0px"
	 width="41.4px" height="53.3px" viewBox="0 0 41.4 53.3" style="enable-background:new 0 0 41.4 53.3;" xml:space="preserve">
<style type="text/css">
	.st0{fill:#CA2026;}
	.st1{fill:#FFFFFF;}
</style>
<path class="st0" d="M35.5,0H5.9C2.7,0,0,2.7,0,5.9l0,47.3l20.7-8.9l20.7,8.9V5.9C41.4,2.7,38.8,0,35.5,0"/>
<path class="st1" d="M20.7,35.5c-4.7,0-9.1-2.4-11.8-6.3c-0.5-0.8-0.3-1.8,0.5-2.3c0.8-0.5,1.8-0.3,2.3,0.5c2,3,5.4,4.8,9,4.8
	c3.6,0,7-1.8,9-4.8c0.5-0.8,1.5-1,2.3-0.5c0.8,0.5,1,1.5,0.5,2.3C29.8,33.2,25.4,35.5,20.7,35.5"/>
</svg>
