<svg id="Layer_1" data-name="Layer 1" xmlns="http://www.w3.org/2000/svg" width="50" height="56.78" viewBox="0 0 50 56.78"><defs><style>.cls-1{fill:#c00;}.cls-2{fill:#fff;}</style></defs><title>university</title><path class="cls-1" d="M0,53.34V3.44a3.39,3.39,0,0,1,5.1-3l43.19,25a3.43,3.43,0,0,1,0,5.94L5.1,56.32A3.4,3.4,0,0,1,0,53.34Z"/><path class="cls-2" d="M19.54,36.05A12.16,12.16,0,0,1,9.4,30.6,1.45,1.45,0,1,1,11.8,29a9.3,9.3,0,0,0,12.88,2.63h0A9.34,9.34,0,0,0,27.32,29a1.45,1.45,0,1,1,2.4,1.61,12.27,12.27,0,0,1-10.18,5.45"/></svg>